<svg x="0px" y="0px" version="1.1" viewBox="0 0 212.984 329.286" xml:space="preserve" style="enable-background:new 0 0 212.984 329.286" id="Layer_1" xmlns:xlink="http://www.w3.org/1999/xlink" xmlns="http://www.w3.org/2000/svg">
<path d="m183.31 36.937c3.43-2.351 8.41 0.473 10.217 2.357-2.39 1.31-5.88-3.002-10.22-2.357z" style="fill:#3b2153;clip-rule:evenodd;fill-rule:evenodd"></path>
<path d="m195.1 40.866c2.119-1.553 5.685 2.145 7.86 3.144-2.04 1.467-5.36-2.473-7.86-3.144z" style="fill:#3b2153;clip-rule:evenodd;fill-rule:evenodd"></path>
<path d="m162.09 46.367c-1.441 2.793-14.925-1.027-15.718-1.572 5-2.169 10.25 1.645 15.72 1.572z" style="fill:#3b2153;clip-rule:evenodd;fill-rule:evenodd"></path>
<path d="m162.09 44.795c6.336-1.351 15.582 1.176 20.432 3.93-5.11 0.131-13.01-3.746-20.43-3.93z" style="fill:#3b2153;clip-rule:evenodd;fill-rule:evenodd"></path>
<path d="m186.45 46.367c3.503-2.684 6.41 1.945 9.43 2.358-2.66 1.841-6.08-2.273-9.43-2.358z" style="fill:#3b2153;clip-rule:evenodd;fill-rule:evenodd"></path>
<path d="m140.87 47.939c2.89 0.517 5.284 1.527 8.645 1.572-0.47 2.302-7.65 0.521-8.65-1.572z" style="fill:#3b2153;clip-rule:evenodd;fill-rule:evenodd"></path>
<path d="m130.66 51.869c3.465-0.041 7.119 0.388 11.002 1.571 3.278 1 6.249 3.69 9.43 4.716 3.439 1.108 7.693 0.368 11.004 1.572 4.667 1.697 8.376 6.445 11.786 8.645-3.702 0.544-8.551-4.536-11.786-7.074-12.52-1.105-20.51-6.728-31.43-9.43z" style="fill:#3b2153;clip-rule:evenodd;fill-rule:evenodd"></path>
<path d="m150.3 51.869c1.615-1.817 6.786-0.545 8.645 0-2.21 2.42-5.42-0.818-8.64 0z" style="fill:#3b2153;clip-rule:evenodd;fill-rule:evenodd"></path>
<path d="m160.52 54.226c2.364-1.284 7.848 1.035 9.43 3.144-4.45 0.263-5.31-3.072-9.43-3.144z" style="fill:#3b2153;clip-rule:evenodd;fill-rule:evenodd"></path>
<path d="m101.58 54.226c8.778 6.154 21.134 8.729 31.435 13.36-9.762 0.065-18.91-7.283-29.078-9.431-0.25-1.853-2.73-1.461-2.36-3.929z" style="fill:#3b2153;clip-rule:evenodd;fill-rule:evenodd"></path>
<path d="m119.65 54.226c6.189 2.718 13.25 4.564 20.434 6.287-7.18 1.412-16.23-2.091-20.43-6.287z" style="fill:#3b2153;clip-rule:evenodd;fill-rule:evenodd"></path>
<path d="m194.31 55.798c2.122 0.76 3.793 1.971 3.93 4.715-2.39-0.49-4.02-1.745-3.93-4.715z" style="fill:#3b2153;clip-rule:evenodd;fill-rule:evenodd"></path>
<path d="m183.31 57.37c5.221 1.328 8.789 4.31 9.431 10.217-2.39-4.161-6.15-6.946-9.43-10.217z" style="fill:#3b2153;clip-rule:evenodd;fill-rule:evenodd"></path>
<path d="m176.24 60.513c4.873 1.938 7.744 5.877 10.217 10.217-4.28-2.541-6.93-6.697-10.22-10.217z" style="fill:#3b2153;clip-rule:evenodd;fill-rule:evenodd"></path>
<path d="m147.16 63.657c5.492 1.319 10.339 3.283 13.36 7.073-3.4-0.792-5.949-2.434-7.86-4.715-2.39-0.228-5.36 0.124-5.5-2.358z" style="fill:#3b2153;clip-rule:evenodd;fill-rule:evenodd"></path>
<path d="m141.66 69.158c3.328-0.186 3.994 2.293 6.287 3.144-1.68 1.622-6.49-0.287-6.29-3.144z" style="fill:#3b2153;clip-rule:evenodd;fill-rule:evenodd"></path>
<path d="m175.45 70.729c4.579 1.708 6.073 6.501 6.288 12.575-2.6-3.686-3.94-8.632-6.29-12.575z" style="fill:#3b2153;clip-rule:evenodd;fill-rule:evenodd"></path>
<path d="m165.23 73.087c3.874 1.628 5.281 5.722 7.073 9.431-3.72-1.769-5.55-5.444-7.07-9.431z" style="fill:#3b2153;clip-rule:evenodd;fill-rule:evenodd"></path>
<path d="m155.8 75.445c4.579 1.184 6.981 4.545 8.645 8.645-2.88-2.877-6.57-4.946-8.64-8.645z" style="fill:#3b2153;clip-rule:evenodd;fill-rule:evenodd"></path>
<path d="m66.213 80.161c1.983 1.783-1.038 5.204-1.572 7.073-2.376-2.174 1.873-4.371 1.572-7.073z" style="fill:#3b2153;clip-rule:evenodd;fill-rule:evenodd"></path>
<path d="m172.31 84.09c1.75 1.656 2.165 4.646 4.716 5.501-2.66 2.167-6.47-2.971-4.72-5.501z" style="fill:#3b2153;clip-rule:evenodd;fill-rule:evenodd"></path>
<path d="m166.81 87.233c2.068 0.813 2.647 3.116 4.716 3.93-1.44 1.633-4.79-1.457-4.72-3.93z" style="fill:#3b2153;clip-rule:evenodd;fill-rule:evenodd"></path>
<path d="m10.416 240.48c1.741-1.176-0.062 7.893 1.572 9.432-1.373 0.724-1.734 2.456-1.572 4.715-2.308-3.9 1.098-8.83 0-14.14z" style="fill:#3b2153;clip-rule:evenodd;fill-rule:evenodd"></path>
<path d="m9.628 257.77c1.33 2.051 1.183 16.885 0 22.006-1.938-6.15-0.363-15.56 0-22.01z" style="fill:#3b2153;clip-rule:evenodd;fill-rule:evenodd"></path>
<path d="m8.057 295.49c0.299 0.03 3.699 14.166 0 15.718v-15.72z" style="fill:#3b2153;clip-rule:evenodd;fill-rule:evenodd"></path>
<path d="m93.718 65.229c-11.009 8.116-16.979 28.077-29.077 37.723-2.198 8.806-9.883 12.122-10.217 22.791-2.403 0.421-2.31 5.941-4.716 3.93-0.393 2.472 1.714 3.072 0 4.715-4.067-0.528-0.457-3.69 0-6.287-3.943 4.439-6.454 10.312-9.43 15.718 3.465-17.396 16.477-27.412 23.576-44.009 1.612 0.464 1.683-1.153 2.359-1.572 3.632-2.25 9.422-13.11 11.787-20.426 6.051-1.284 8.474-6.197 9.432-12.574-1.959-1.138-3.754 4.603-5.501 6.287-1.276-0.703 4.339-7.554 6.286-10.217-2.604 0.585-3.408 2.41-4.714 2.358-1.956-0.118-0.23-2.661 0-3.144-1.078-0.601-3.308 1.916-3.931 0.786-0.237-2.849-4.086-5.525-5.501-9.43-2.611 1.579-4.214 4.168-4.716 7.859-1.065-0.244-0.65-1.968-0.785-3.144-2.02 6.471-8.563 11.353-7.858 18.076h-2.359c-6.826 25.896-20.005 49.562-25.147 76.23 0.242 1.661 2.729-0.826 2.357-2.358 0.828 1.907-2.062 6.822-4.716 7.859-0.628 8.017-5.345 11.942-7.858 18.074-2.978-4.734 4.951-8.059 1.572-13.358 1.5-1.475 1.421 0.466 3.929 0 0.911-7.734 3.016-14.274 4.716-21.22-1.697-1.898-2.707 3.538-3.929 4.716-0.15 0.012 1.434-5.977 0.785-8.645 0.922 0.127 0.662 1.433 0.785 2.358 2.219-0.927 2.392-3.897 3.144-6.288 2.916 2.146 4.055-2.915 4.716-5.5-1.337-0.289-1.482 0.613-1.572 1.572-0.223-7.303 5.453-15.5 7.073-23.577 1.006 5.732-3.663 12.57-5.501 18.076 3.868-3.784 5.221-9.474 7.073-14.933 2.43-7.16 5.319-13.022 7.073-22.004 1.43-0.392 3.203-7.083 1.572-5.501-2.537-1.835 3.667-1.511 2.357-4.715-7.95 2.008-6.542 20.175-11.002 28.292-1.918-8.211 4.923-14.456 3.929-24.362-1.634 0.461-2.54 1.651-3.929 2.358-1.221 7.581-2.473 19.452-5.501 22.791 1.693-6.724 3.88-15.671 2.357-21.219-6.042 2.602-2.5 14.789-5.501 20.433-2.812-5.1 4.593-16.556-2.357-18.861-0.825 12.489-1.347 26.43-6.288 36.937 0.979-8.213 7.149-25.466 3.929-35.365-1.606 3.007-0.828 1.552-3.142 0 3.879 31.26-14.035 51.346-13.361 79.375-4.022-3.994 1.064-11.156 0-17.291-2.837 4.235-3.897 10.249-3.929 17.291 0.927 1.436 0.68-1.805 3.142 0 2.362 1.806 2.032 9.691 0.787 12.572 4.35 0.021 3.239-10.52 4.716-18.074 1.28-6.553 4.078-11.907 3.929-17.29 0.188 22.794-10.373 42.319-11.789 62.084 1.337 0.289 1.482-0.612 1.572-1.571 1.892 9.585-1.446 16.734-1.572 25.935-2.746 1.999-1.51 4.941-3.144 10.217-0.403 1.302-1.442 1.376-1.572 2.356-2.904 21.997 0 49.166-3.929 66.015-1.869-3.148-0.185-7.438-0.785-11.004-0.185-1.087-1.547-2.158-1.572-3.142-0.119-4.61 1.146-10.661 1.572-16.503 0.51-7.014 1.109-13.658 1.572-19.648 0.519-6.744 0.202-13.437 0.785-19.646 0.375-3.986 2.331-7.773 2.357-11.789 0.095-14.462 1.454-32.286 4.716-47.153-2.257-2.196-1.685-7.222-3.929-9.43 2.03-30.603 23.616-49.531 17.29-83.304-11.375 1.783-19.799-2.94-25.149-9.431-6.984-20.361 25.485-24.135 25.934-7.877 3.284 0.402 5.325-0.438 7.073-1.571 4.171-22.845-21.084-25.007-13.359-44.01 10.673-8.313 35.896-10.866 47.153-1.572 2.798-0.605 2.959-3.85 4.714-5.501 1.623 3.219-2.543 7.392-4.714 9.431-1.759 13.173-10.888 18.978-12.576 32.221-1.949 1.522-2.798-0.77-3.929 1.572 4.844 1.163 7.773-6.363 12.574-7.859-1.382-5.05 3.601-3.736 2.359-8.645 2.144 0.572 1.581-1.562 3.142-1.572 0.019-1.852-1.353-2.314-0.785-4.715 4.074-2.737 5.127-8.496 6.288-14.146 3.531-1.969 4.182-6.819 5.501-11.002 3.191-1 3.941-4.441 3.929-8.645-5.577 2.02-6.454 8.74-10.217 12.574-0.003-6.299 5.736-13.644 12.574-15.718 1.285 8.433-4.249 16.651-7.858 22.791 15.479-1.232 37.253 0.03 55.798 3.93 16.975 3.569 33.504-7.482 50.297-1.572 1.566 0.552 4.23 2.002 6.286 3.144 1.613 0.894 3.021 3.151 4.716 3.929 4.388 2.013 9.104 1.762 11.002 3.144 4.956 3.611 8.032 14.552 4.716 22.791-1.496 3.715-9.089 10.703-12.574 15.718-3.184 4.579-4.211 9.445-10.217 11.002 0.841 2.937-1.952 2.24-1.571 4.716-7.951 4.099-11.315 12.786-19.646 16.503 2.688-14.741-12.464-11.638-12.574-23.576-8.229-1.202-16.067-2.795-21.221-7.073-16.151 0.959-25.291-5.096-36.149-9.431-11.107 7.491-16.279 20.919-23.577 32.221-0.296-5.021 5.029-11.206 8.645-14.932 2.064-7.621 7.719-11.659 10.989-18.08zm-49.51-2.358c3.398-0.007 3.104-3.707 5.5-4.715 0.133 1.778-3.778 3.456-1.572 4.715 7.837-12.297 14.485-25.522 18.862-39.294-11.687-7.556-36.357-6.487-45.582 3.144v7.859c2.222 2.756 5.121 4.834 7.86 7.073 2.521 0.689 1.629-2.038 3.142-2.358 0.109 1.464 0.517 2.626 1.572 3.144-0.171-5.411 1.952 0.95 2.358 0.786 0.58-0.234-0.218-4.603 1.57-3.144v7.073c1.546 0.235 1.56-1.061 2.359-1.572-1.096 2.216 2.755 8.152 0 11.789 0.083-6.902-3.88-13.921-9.432-12.574 1.98 1.453 6.128 4.839 4.716 7.074-1.117-0.529-2.426-4.809-3.929-2.358 3.748 4.437 3.686 13.157 3.144 18.075h4.714c0.728-5.458-2.734-10.867-1.572-14.146 2.03 3.21 2.442 8.038 6.29 9.429zm0 17.29c15.346-4.04 18.922-19.848 27.506-30.649 4.851 1.436 6.516 6.059 10.216 8.645h5.501c12.332 7.315 26.159 13.134 43.225 15.718 2.403 0.57 2.31-1.356 4.714-0.786 4.586 4.06 10.78 6.509 19.648 6.287 1.896 10.154 13.315 10.785 14.931 21.219 4.351-0.688 3.049-5.415 7.073-4.715v-3.93c3.159 2.391 5.674-1.297 4.716-5.501 1.499 0.335 1.421 2.246 3.929 1.572 1.151-2.778 0.509-7.351 2.357-9.431 0.66 0.912 1.037 2.107 0.786 3.93 4.405-1.231 7.358-6.757 5.501-11.789 2.468-0.387 2.077 2.709 3.93 0.786 0.055-3.088 0.38-5.906 1.571-7.859 3.71 0.145-1.405 4.232 2.357 3.93 3.547-3.527 3.605-10.541 4.716-16.503 0.047 3.621 0.363 6.972 1.572 9.43 4.416-7.256 1.888-19.044-3.145-23.576-11.725-1.811-18.65-9.908-29.863-11.002-13.418-1.31-23.067 4.028-34.579 3.929-5.189-0.044-11.893-1.591-17.288-2.357-14.875-2.112-31.131-3.52-44.796-2.358-3.585 6.109-4.894 14.491-8.645 20.433 7.656-0.874 17.177 3.434 23.576 3.93 9.645 0.747 19.678-4.261 29.078-2.358 1.825-3.032 6.387-0.601 9.431-1.572 1.668-0.532 1.367-2.125 3.144-2.357 3.156-0.413 7.31-1.273 9.432 1.571-4.092-0.057-5.826-1.26-9.432 0-0.31 1.352 1.167 2.015 0 2.358-4.363-0.293-7.509-1.123-11.002 0.786 0.648 0.752 5.082 1.606 3.144 2.358-4.18-1.059-7.803-2.676-13.36-2.358-2.343 2.437 2.553 2.066 2.358 4.716-5.402-2.155-12.461-3.863-20.433-2.358-0.287 3.167 4.544 1.217 3.929 4.715-4.375-4.185-10.921-4.345-18.075-5.501-4.6-0.744-7.361-2.85-10.216-2.358-4.92 0.839-10.967 9.297-17.295 14.138-5.404 4.136-12.688 7.567-17.29 8.645-4.712 1.105-8.61 0.728-14.931 0.786-2.791 0.026-6.48 1.415-8.645-0.786 3.656-1.282 7.842-2.732 11.787-1.571 0.647-9.946-15.991-7.896-20.432-3.93-8.242 17.91 16.568 23.344 31.435 18.076-2.437-1.036-4.359 2.328-5.502 0 5.864-3.83 16.306-3.08 20.434-8.645-1.282 3.168-5.372 3.533-7.072 6.287zm-29.079 94.299c0.476-1.729 1.975-5.855-0.785-6.285 0.118 2.32-2.284 5.54 0.785 6.28z" style="fill:#3b2153;clip-rule:evenodd;fill-rule:evenodd"></path>
<path d="m67.785 60.513c1.024 1.333-1.473 5.829-2.359 7.86 0.631 2.686-1.17 4.487-0.785 0.785 0.787-3.142 1.752-6.107 3.144-8.645z" style="fill:#3b2153;clip-rule:evenodd;fill-rule:evenodd"></path>
<path d="m69.355 75.445c-2.315-3.655 1.719-7.692 2.359-11.002 1.731 0.193-2.518 7.222-2.359 11.002z" style="fill:#3b2153;clip-rule:evenodd;fill-rule:evenodd"></path>
<path d="m74.858 68.373c0.995 0.668-3.631 8.798-4.716 12.574-0.686-4.844 2.461-7.906 4.716-12.574z" style="fill:#3b2153;clip-rule:evenodd;fill-rule:evenodd"></path>
<path d="m67.785 84.09c1.871 3.729-3.241 7.22-3.144 11.788-1.44-3.297 2.003-8.457 3.144-11.788z" style="fill:#3b2153;clip-rule:evenodd;fill-rule:evenodd"></path>
<path d="m59.14 85.662c2.444 2.497-2.343 4.429-1.572 7.858-2.241 0.413 1.195-5.784 1.572-7.858z" style="fill:#3b2153;clip-rule:evenodd;fill-rule:evenodd"></path>
<path d="m15.916 329.29c-9.22-9.25-1.879-35.475-3.144-55.011-0.683-3.042 1.919-2.797 2.357-4.716-4.19-9.344 2.364-23.72 0-33.793 0.918-2.439 2.271 0.419 2.359-2.358 0.673-3.642-1.236-0.823-1.572-2.357 2.352-11.173 5.776-24.91 5.501-36.151-1.373 0.724-1.734 2.458-1.572 4.716-3.194-8.705 4.801-13.006 4.716-21.22-0.133-2.685 2.765 0.18 3.929-2.355 2.813-3.737 5.537-7.561 9.43-10.217 7.26-10.295 10.051-23.46 14.933-35.365 4.854-11.84 12.193-21.298 18.862-30.649 0.444-1.4 2.184-0.114 0.785 0-6.602 9.259-12.629 18.66-17.29 31.436-1.352 3.708-2.801 8.622-4.714 14.146-3.863 11.145-9.917 19.931-17.29 28.291-2.02 2.29-5.427 4.692-6.288 7.073-2.404 6.654-1.579 14.713-2.357 21.219-1.183 9.887-4.757 17.111-4.716 27.507 0.009 1.878 1.41 3.678 1.572 5.5 0.419 4.686-2.993 11.41-3.144 17.29-0.071 2.774 0.991 4.808 0.787 7.073-0.15 1.651-1.197 2.17-1.572 3.931-0.78 3.65 0.484 7.77 0 11.787-1.886 15.65-0.379 35.77-1.572 54.22zm-1.572-12.58c-2.141-2.445 2.013-6.578-1.572-7.857 0.754 2.39-1.682 7.97 1.572 7.86z" style="fill:#3b2153;clip-rule:evenodd;fill-rule:evenodd"></path>
<path d="m35.563 104.52c2.099 4.737-2.423 9.614-3.144 14.146 0.222 1.404-0.742 1.613-0.785 0.786 0.79-5.5 3.863-8.72 3.929-14.94z" style="fill:#3b2153;clip-rule:evenodd;fill-rule:evenodd"></path>
<path d="m30.847 121.81c1.447-2.134 0.417 3.807-0.785 3.929 0.23 2.28-1.364 10.98-1.572 5.502 0.476-1.883 1.129-3.586 0.787-6.288 1.055-0.51 1.463-1.67 1.57-3.14z" style="fill:#3b2153;clip-rule:evenodd;fill-rule:evenodd"></path>
<path d="m26.918 123.38c0.61-1.434 0.846 0.471 0.787 1.572-0.889 4.232-2.378 8.597-3.144 10.217-2.385 5.04 0.484-3.485 1.572-5.501-0.557-2.91 1.342-3.37 0.785-6.29z" style="fill:#3b2153;clip-rule:evenodd;fill-rule:evenodd"></path>
<path d="m45.78 135.96c0.799 0.51 0.812 1.807 2.357 1.572-1.769 7.923-4.498 14.887-8.645 20.433-2.185-2.684 6.983-7.527 2.358-10.217 1.861-3.37 3.305-7.17 3.93-11.78z" style="fill:#3b2153;clip-rule:evenodd;fill-rule:evenodd"></path>
<path d="m19.845 144.6c2.371 3.756-1.817 13.655-2.357 19.647-0.245-5.77 1.19-14.19 2.357-19.65z" style="fill:#3b2153;clip-rule:evenodd;fill-rule:evenodd"></path>
<path d="m33.206 159.54c1.279 3.138-3.234 7.229-4.716 10.217 2.746-0.183 3.844-3.154 5.501-4.716 4.484-4.226 0.093 1.408-3.144 3.931-0.131 3.011-2.841 3.445-3.929 5.499-1.219-5.17 5.024-9.64 6.288-14.93z" style="fill:#3b2153;clip-rule:evenodd;fill-rule:evenodd"></path>
<metadata>image/svg+xmlOpenclipartcalla lily2007-10-26T05:39:37Line and Form by Walter Crane, 1914https://openclipart.org/detail/7325/calla-lily-by-johnny_automaticjohnny_automaticcalla lilyexternalsourceflowerplant</metadata></svg>
