<?xml version="1.0" standalone="no"?>
<!DOCTYPE svg PUBLIC "-//W3C//DTD SVG 20010904//EN"
 "http://www.w3.org/TR/2001/REC-SVG-20010904/DTD/svg10.dtd">
<svg version="1.0" xmlns="http://www.w3.org/2000/svg"
 width="521.000000pt" height="94.000000pt" viewBox="0 0 521.000000 94.000000"
 preserveAspectRatio="xMidYMid meet">
<g transform="translate(0.000000,94.000000) scale(0.100000,-0.100000)"
fill="#000000" stroke="none">
<path d="M2299 926 c-134 -36 -247 -150 -290 -294 -11 -37 -20 -47 -70 -73
-198 -106 -223 -251 -50 -299 40 -11 129 -11 176 -1 27 6 37 0 94 -51 77 -70
153 -102 225 -95 85 8 126 82 70 126 -28 22 -101 37 -133 26 -32 -10 -25 -21
12 -18 66 7 136 -56 101 -92 -36 -35 -138 -4 -217 65 -31 29 -57 55 -57 60 0
4 15 11 33 14 42 8 172 70 216 103 18 14 40 41 48 60 30 74 -31 105 -168 85
-66 -9 -142 -31 -201 -57 -16 -6 -18 -1 -18 41 0 49 0 49 149 121 159 76 209
112 236 169 22 46 13 79 -28 104 -36 23 -63 24 -128 6z m135 -22 c9 -4 16 -18
16 -34 0 -44 -84 -112 -215 -175 -174 -84 -177 -83 -123 18 61 114 242 222
322 191z m-459 -494 c-34 -35 -32 -46 5 -20 29 21 29 21 44 -12 8 -18 24 -47
36 -65 21 -31 21 -31 -21 -38 -62 -11 -146 3 -174 28 -24 22 -28 34 -26 73 1
25 73 110 116 135 30 19 30 19 38 -28 7 -41 5 -49 -18 -73z m403 59 c2 -20 -8
-35 -43 -68 -42 -39 -154 -101 -182 -101 -12 0 -60 91 -65 124 -2 14 5 22 27
28 118 35 176 47 215 45 40 -2 45 -5 48 -28z"/>
<path d="M3230 903 c-208 -32 -399 -108 -441 -176 -30 -50 -20 -117 18 -117
15 0 15 2 0 18 -26 28 -21 40 29 72 125 79 454 150 561 121 115 -31 78 -138
-142 -411 -123 -152 -141 -178 -130 -188 3 -3 33 25 67 64 192 215 401 407
502 460 47 25 56 26 71 14 38 -32 -1 -144 -132 -382 -35 -65 -45 -90 -36 -99
21 -21 48 1 93 73 25 39 63 93 86 120 51 60 203 200 261 239 54 37 110 49 119
25 11 -29 -5 -64 -77 -168 -206 -300 -249 -376 -249 -449 0 -37 5 -50 29 -73
33 -32 112 -48 126 -26 6 10 1 12 -23 7 -60 -12 -65 43 -16 174 29 78 93 192
209 370 93 145 114 191 95 214 -20 24 -80 17 -150 -16 -73 -34 -122 -72 -228
-174 -74 -70 -74 -70 -33 14 46 95 51 136 20 175 -27 35 -67 34 -144 -3 -78
-37 -145 -90 -280 -220 -60 -58 -102 -97 -93 -86 8 11 45 57 82 103 116 145
141 221 90 281 -14 17 -42 35 -62 41 -35 9 -168 12 -222 3z"/>
<path d="M410 894 c-14 -2 -59 -9 -100 -15 -152 -22 -257 -66 -285 -119 -19
-37 -19 -61 0 -86 14 -18 14 -17 9 12 -5 27 -2 34 28 51 101 61 484 109 672
84 135 -18 171 -44 141 -102 -18 -34 -5 -39 25 -9 63 63 -35 145 -209 176 -70
12 -221 16 -281 8z"/>
<path d="M443 698 c-128 -185 -164 -245 -189 -314 -28 -75 -31 -159 -9 -191
22 -32 81 -46 114 -28 26 14 26 14 -5 9 -25 -5 -35 -1 -48 17 -21 31 -20 59 5
149 26 96 90 231 168 354 33 54 61 102 61 107 0 26 -27 -2 -97 -103z"/>
<path d="M4875 695 c-5 -2 -22 -6 -36 -9 -19 -4 -40 -27 -75 -81 -36 -54 -55
-75 -70 -75 -12 0 -32 -9 -45 -20 -24 -20 -24 -20 -4 -36 20 -15 19 -17 -28
-59 -58 -53 -193 -145 -213 -145 -33 0 -11 59 48 128 28 33 37 62 18 62 -5 0
-25 14 -44 31 -42 36 -91 46 -148 30 -99 -28 -188 -125 -188 -206 0 -99 89
-101 194 -5 41 38 41 38 38 -1 -10 -97 67 -93 201 10 65 50 67 51 60 24 -19
-69 6 -123 55 -123 41 0 109 38 172 97 59 54 59 54 49 21 -14 -50 -11 -76 12
-99 45 -45 142 -3 254 111 33 33 55 60 50 60 -6 0 -42 -29 -82 -63 -126 -111
-181 -125 -170 -46 5 42 53 129 95 174 20 22 29 25 60 19 20 -4 43 -11 50 -17
7 -5 15 -7 18 -4 14 14 -7 36 -45 48 -41 14 -41 14 29 90 51 57 66 78 55 83
-8 3 -21 4 -27 2 -7 -3 -25 -7 -40 -10 -20 -5 -41 -27 -78 -81 -31 -45 -58
-75 -68 -75 -24 0 -62 -28 -62 -46 0 -8 7 -14 15 -14 8 0 15 -4 15 -9 0 -11
-156 -146 -212 -184 -104 -69 -117 3 -26 145 48 76 67 85 130 64 23 -9 44 -13
47 -10 9 8 -26 35 -62 48 -36 12 -36 12 34 85 73 76 81 105 24 86z m-467 -221
c2 -16 -16 -40 -65 -87 -88 -86 -131 -117 -161 -117 -21 0 -23 3 -18 27 14 55
99 153 161 187 41 21 79 17 83 -10z"/>
<path d="M1443 625 c-46 -32 -28 -90 22 -67 37 17 47 82 12 82 -7 0 -22 -7
-34 -15z"/>
<path d="M1002 613 c-20 -8 -42 -59 -42 -96 0 -29 -11 -45 -64 -100 -71 -72
-126 -112 -171 -123 -29 -7 -29 -7 8 26 74 65 92 145 41 188 -24 21 -35 24
-80 19 -28 -3 -66 -13 -83 -22 -36 -18 -171 -143 -171 -157 0 -6 6 -6 14 1 11
10 13 4 9 -32 -4 -37 -1 -48 18 -66 27 -25 76 -27 134 -5 22 9 67 22 99 30 75
19 128 56 208 144 61 67 97 86 113 60 3 -6 -17 -44 -46 -85 -55 -80 -64 -119
-33 -143 47 -34 153 5 254 95 41 37 56 47 42 28 -74 -101 4 -174 117 -110 51
29 161 116 161 128 0 13 -17 7 -35 -14 -29 -31 -135 -99 -156 -99 -40 0 -13
109 47 187 30 40 30 43 -1 43 -18 0 -51 -24 -113 -81 -129 -121 -225 -179
-238 -146 -7 20 14 58 70 130 26 33 43 64 39 73 -7 20 -46 28 -105 21 -51 -6
-51 -6 -30 16 24 26 41 67 35 85 -5 12 -18 14 -41 5z m-234 -125 c7 -7 12 -28
12 -48 0 -40 -22 -81 -34 -62 -13 21 -44 13 -82 -20 -29 -25 -35 -37 -32 -60
4 -23 0 -30 -19 -34 -13 -4 -35 -3 -49 0 -25 7 -26 10 -22 51 10 83 110 185
184 185 16 0 35 -5 42 -12z"/>
</g>
</svg>
